<svg width="900" height="107" viewBox="0 0 900 107" fill="none" xmlns="http://www.w3.org/2000/svg">
    <path d="M0 3L100 10L200 4L300 13L400 1L500 14L600 9L700 22L800 0L900 19V108H800H700H600H500H400H300H200H100H0V3Z" fill="#F5730A"/>
    <path d="M0 39L100 19H200L300 34L400 21L500 32L600 31L700 11L800 16L900 41V108H800H700H600H500H400H300H200H100H0V39Z" fill="#F78D18"/>
    <path d="M0 48L100 33L200 48L300 47L400 40L500 62L600 63L700 62L800 58H900V108H800H700H600H500H400H300H200H100H0V48Z" fill="#F9A52B"/>
    <path d="M0 63L100 73L200 49L300 48L400 53L500 82L600 55L700 61L800 82H900V108H800H700H600H500H400H300H200H100H0V63Z" fill="#FABC41"/>
    <path d="M0 71L100 75L200 92L300 76L400 102L500 99L600 97L700 92L800 71L900 97V108H800H700H600H500H400H300H200H100H0V71Z" fill="#FBD259"/>
</svg>
