<svg width="900" height="41" viewBox="0 0 900 41" fill="none" xmlns="http://www.w3.org/2000/svg">
    <path d="M0 16L18.8 17.5C37.7 19 75.3 22 112.8 24.5C150.3 27 187.7 29 225.2 32.2C262.7 35.3 300.3 39.7 337.8 40.5C375.3 41.3 412.7 38.7 450.2 35C487.7 31.3 525.3 26.7 562.8 26.7C600.3 26.7 637.7 31.3 675.2 32.2C712.7 33 750.3 30 787.8 30.3C825.3 30.7 862.7 34.3 881.3 36.2L900 38V0H881.3C862.7 0 825.3 0 787.8 0C750.3 0 712.7 0 675.2 0C637.7 0 600.3 0 562.8 0C525.3 0 487.7 0 450.2 0C412.7 0 375.3 0 337.8 0C300.3 0 262.7 0 225.2 0C187.7 0 150.3 0 112.8 0C75.3 0 37.7 0 18.8 0H0V16Z" fill="#FA7268"/>
    <path d="M0 33L18.8 32.5C37.7 32 75.3 31 112.8 29.7C150.3 28.3 187.7 26.7 225.2 25.2C262.7 23.7 300.3 22.3 337.8 23.3C375.3 24.3 412.7 27.7 450.2 29.7C487.7 31.7 525.3 32.3 562.8 29.2C600.3 26 637.7 19 675.2 18.8C712.7 18.7 750.3 25.3 787.8 29.2C825.3 33 862.7 34 881.3 34.5L900 35V0H881.3C862.7 0 825.3 0 787.8 0C750.3 0 712.7 0 675.2 0C637.7 0 600.3 0 562.8 0C525.3 0 487.7 0 450.2 0C412.7 0 375.3 0 337.8 0C300.3 0 262.7 0 225.2 0C187.7 0 150.3 0 112.8 0C75.3 0 37.7 0 18.8 0H0V33Z" fill="#DC5177"/>
    <path d="M0 18L18.8 19.5C37.7 21 75.3 24 112.8 23.2C150.3 22.3 187.7 17.7 225.2 17.5C262.7 17.3 300.3 21.7 337.8 21.8C375.3 22 412.7 18 450.2 16.5C487.7 15 525.3 16 562.8 15.5C600.3 15 637.7 13 675.2 14.3C712.7 15.7 750.3 20.3 787.8 21.7C825.3 23 862.7 21 881.3 20L900 19V0H881.3C862.7 0 825.3 0 787.8 0C750.3 0 712.7 0 675.2 0C637.7 0 600.3 0 562.8 0C525.3 0 487.7 0 450.2 0C412.7 0 375.3 0 337.8 0C300.3 0 262.7 0 225.2 0C187.7 0 150.3 0 112.8 0C75.3 0 37.7 0 18.8 0H0V18Z" fill="#B13D82"/>
    <path d="M0 17L18.8 15.3C37.7 13.7 75.3 10.3 112.8 10.3C150.3 10.3 187.7 13.7 225.2 15.8C262.7 18 300.3 19 337.8 17.8C375.3 16.7 412.7 13.3 450.2 11.8C487.7 10.3 525.3 10.7 562.8 12.5C600.3 14.3 637.7 17.7 675.2 18.3C712.7 19 750.3 17 787.8 16C825.3 15 862.7 15 881.3 15H900V0H881.3C862.7 0 825.3 0 787.8 0C750.3 0 712.7 0 675.2 0C637.7 0 600.3 0 562.8 0C525.3 0 487.7 0 450.2 0C412.7 0 375.3 0 337.8 0C300.3 0 262.7 0 225.2 0C187.7 0 150.3 0 112.8 0C75.3 0 37.7 0 18.8 0H0V17Z" fill="#793586"/>
    <path d="M0 7L18.8 7.5C37.7 8 75.3 9 112.8 9.3C150.3 9.7 187.7 9.3 225.2 9.3C262.7 9.3 300.3 9.7 337.8 9.2C375.3 8.7 412.7 7.3 450.2 7.2C487.7 7 525.3 8 562.8 8.8C600.3 9.7 637.7 10.3 675.2 10.5C712.7 10.7 750.3 10.3 787.8 10.5C825.3 10.7 862.7 11.3 881.3 11.7L900 12V0H881.3C862.7 0 825.3 0 787.8 0C750.3 0 712.7 0 675.2 0C637.7 0 600.3 0 562.8 0C525.3 0 487.7 0 450.2 0C412.7 0 375.3 0 337.8 0C300.3 0 262.7 0 225.2 0C187.7 0 150.3 0 112.8 0C75.3 0 37.7 0 18.8 0H0V7Z" fill="#31317F"/>
</svg>
