<svg width="900" height="100" viewBox="0 0 900 100" fill="none" xmlns="http://www.w3.org/2000/svg">
    <path d="M0 45L15 47.5C30 50 60 55 90 57.5C120 60 150 60 180 61.5C210 63 240 66 270 64.8C300 63.7 330 58.3 360 57.2C390 56 420 59 450 58.8C480 58.7 510 55.3 540 50C570 44.7 600 37.3 630 36.5C660 35.7 690 41.3 720 46.3C750 51.3 780 55.7 810 52C840 48.3 870 36.7 885 30.8L900 25L900 0L885 0C870 0 840 0 810 0C780 0 750 0 720 0C690 0 660 0 630 0C600 0 570 0 540 0C510 0 480 0 450 0C420 0 390 0 360 0C330 0 300 0 270 0C240 0 210 0 180 0C150 0 120 0 90 0C60 0 30 0 15 0L0 0Z"
          fill="#ffffff"></path>
    <path d="M0 58L15 53.2C30 48.3 60 38.7 90 36.7C120 34.7 150 40.3 180 41.3C210 42.3 240 38.7 270 39.2C300 39.7 330 44.3 360 46.3C390 48.3 420 47.7 450 44.2C480 40.7 510 34.3 540 30.5C570 26.7 600 25.3 630 23.7C660 22 690 20 720 21.7C750 23.3 780 28.7 810 30.2C840 31.7 870 29.3 885 28.2L900 27L900 0L885 0C870 0 840 0 810 0C780 0 750 0 720 0C690 0 660 0 630 0C600 0 570 0 540 0C510 0 480 0 450 0C420 0 390 0 360 0C330 0 300 0 270 0C240 0 210 0 180 0C150 0 120 0 90 0C60 0 30 0 15 0L0 0Z"
          fill="#bbb4d3"></path>
    <path d="M0 27L15 29.7C30 32.3 60 37.7 90 41.3C120 45 150 47 180 41.8C210 36.7 240 24.3 270 22.8C300 21.3 330 30.7 360 34.8C390 39 420 38 450 38.5C480 39 510 41 540 39.5C570 38 600 33 630 29.7C660 26.3 690 24.7 720 25C750 25.3 780 27.7 810 27.7C840 27.7 870 25.3 885 24.2L900 23L900 0L885 0C870 0 840 0 810 0C780 0 750 0 720 0C690 0 660 0 630 0C600 0 570 0 540 0C510 0 480 0 450 0C420 0 390 0 360 0C330 0 300 0 270 0C240 0 210 0 180 0C150 0 120 0 90 0C60 0 30 0 15 0L0 0Z"
          fill="#796fa9"></path>
    <path d="M0 8L15 11.2C30 14.3 60 20.7 90 22C120 23.3 150 19.7 180 18.5C210 17.3 240 18.7 270 19.5C300 20.3 330 20.7 360 18.8C390 17 420 13 450 10.7C480 8.3 510 7.7 540 9.7C570 11.7 600 16.3 630 17.8C660 19.3 690 17.7 720 18.7C750 19.7 780 23.3 810 21.7C840 20 870 13 885 9.5L900 6L900 0L885 0C870 0 840 0 810 0C780 0 750 0 720 0C690 0 660 0 630 0C600 0 570 0 540 0C510 0 480 0 450 0C420 0 390 0 360 0C330 0 300 0 270 0C240 0 210 0 180 0C150 0 120 0 90 0C60 0 30 0 15 0L0 0Z"
          fill="#31317f"></path>
</svg>
